<?xml version="1.0" standalone="no"?><!DOCTYPE svg PUBLIC "-//W3C//DTD SVG 1.1//EN" "http://www.w3.org/Graphics/SVG/1.1/DTD/svg11.dtd"><svg t="1725630398419" class="icon" viewBox="0 0 1024 1024" version="1.1" xmlns="http://www.w3.org/2000/svg" p-id="18456" xmlns:xlink="http://www.w3.org/1999/xlink" width="200" height="200"><path d="M783.996834 864.930121c-16.194844-0.090051-18.888186-8.024767-18.696827-20.843724 0.287549-28.963659-0.38374-58.007135 0-87.060844 0.388856-30.091342-11.078313-54.783721-31.606859-76.771501-34.407648-36.959773-67.169819-75.447343-102.342899-111.573122-35.365462-36.204573-34.981722-67.433832-0.681522-102.794177 35.084053-36.22197 67.851341-74.703399 102.349039-111.590518 21.587668-22.906709 33.060977-48.849568 32.378431-80.248695-0.676405-28.963659 0.101307-58.007135-0.09619-87.060845-0.096191-12.06478 4.046153-17.626449 17.541514-18.015306 20.623713-0.659009 36.041868-16.127306 37.483706-34.706453 1.25662-16.781198-12.526291-33.759895-31.989575-38.290071-6.074346-1.414209-12.532431-1.600451-18.696827-1.600451-171.349553 0.090051-342.885348 0.090051-514.324952 0.186242-7.421017 0-15.129582 0.568958-22.35924 2.450818-18.404162 4.89652-30.930453 21.89159-29.201066 38.205137 2.028193 18.4717 16.673751 33.753755 36.143175 33.849946 16.189727 0.090051 18.888186 7.91732 18.691711 20.753673-0.281409 28.947286 0.388856 58.000995 0 87.060845-0.38374 29.978778 11.089569 54.783721 31.612998 76.771501 37.292348 40.160675 74.111928 80.82277 110.632703 121.66599 26.214035 29.239951 26.016537 54.118572-0.575098 83.83743-36.525891 40.842197-73.345472 81.487919-110.637819 121.665991-19.847024 21.508873-31.314193 45.834908-30.936593 75.17105 0.292666 28.3947-0.478907 56.773028 0.101307 85.167728 0.287549 15.282055-2.609431 24.230867-21.587667 23.954575-17.057491-0.276293-31.4155 14.989389-32.863479 32.632211-1.442862 16.792455 5.973038 30.457686 22.360264 37.067221 8.480138 3.39226 18.307971 4.435009 27.656896 4.530176 85.765339 0.276293 171.445744 0.186242 257.211083 0.186242 85.770456 0 171.439604 0.090051 257.114892-0.096191 8.002254 0 16.477276-0.7552 24.089652-2.924609 17.152658-4.992711 29.104875-22.264073 27.464515-37.642319-1.927909-18.284435-16.861016-33.842783-36.235273-33.93795z m-93.381807-19.334347c0.38374 14.713097-5.876847 19.148106-20.234857 18.950608-52.906977-0.552585-105.910145-0.186242-158.817122-0.186242-49.824779 0-99.54825 0.096191-149.276838 0-28.51852 0-28.51852-0.090051-28.625968-28.963659-0.090051-16.019859 1.549286-32.243355-0.382716-47.993061-3.657296-30.271444 7.906064-52.918233 28.913516-74.320682 34.407648-35.18536 66.88227-72.145134 99.745749-108.74982 46.443775-51.582819 45.576011-124.393101-1.831718-176.747493-37.19718-41.023322-75.267241-81.391728-111.314225-123.45166-8.481162-9.906627-13.388938-24.896017-14.549368-38.098713-2.310625-25.098631-0.096191-50.562583-0.862647-75.830059-0.388856-14.623046 4.046153-20.939915 20.331048-20.843724 105.910145 0.552585 211.718983 0.366344 317.539076 0.090051 13.586436-0.090051 19.559475 4.14746 19.277042 18.009166-0.580215 27.735691 0.957815 55.651484-0.777712 83.290985-0.676405 10.734482-5.590322 23.199375-12.72379 31.398104-36.329417 41.778522-73.808006 82.620719-111.399159 123.356492-50.597375 55.093782-50.980091 127.430274-0.575098 182.416609 37.388539 40.933271 75.069743 81.668021 111.302969 123.45166 7.517207 8.582469 12.526291 21.598924 13.298887 33.015951 2.028193 26.8843 0.291642 54.134945 0.962931 81.205487z m-55.217602-570.037834H388.69058l123.356492 120.708176 123.350353-120.708176zM388.689556 758.438739v60.367902h246.706845v-60.367902L512.047072 637.71419 388.689556 758.438739z" p-id="18457"></path></svg>