<?xml version="1.0" standalone="no"?><!DOCTYPE svg PUBLIC "-//W3C//DTD SVG 1.1//EN" "http://www.w3.org/Graphics/SVG/1.1/DTD/svg11.dtd"><svg t="1724432174528" class="icon" viewBox="0 0 1024 1024" version="1.1" xmlns="http://www.w3.org/2000/svg" p-id="5434" xmlns:xlink="http://www.w3.org/1999/xlink" width="200" height="200"><path d="M608.20001 408.4v142.2c0 3.6-2.8 6.4-6.4 6.4h-22.8c-2.2 0-4.2-1.2-5.2-2.6l-65.2-88v84.4c0 3.6-2.8 6.4-6.4 6.4h-22.8c-3.6 0-6.4-2.8-6.4-6.4v-142.2c0-3.6 2.8-6.4 6.4-6.4H502.00001c2 0 4.2 1 5.2 2.8l65.2 88v-84.4c0-3.6 2.8-6.4 6.4-6.4h22.8c3.6-0.2 6.6 2.8 6.6 6.2z m-164-6.4h-22.8c-3.6 0-6.4 2.8-6.4 6.4v142.2c0 3.6 2.8 6.4 6.4 6.4h22.8c3.6 0 6.4-2.8 6.4-6.4v-142.2c0-3.4-2.8-6.4-6.4-6.4z m-55 119.2h-62.2v-112.8c0-3.6-2.8-6.4-6.4-6.4h-22.8c-3.6 0-6.4 2.8-6.4 6.4v142.2c0 1.8 0.6 3.2 1.8 4.4 1.2 1 2.6 1.8 4.4 1.8h91.4c3.6 0 6.4-2.8 6.4-6.4v-22.8c0-3.4-2.8-6.4-6.2-6.4zM728.20001 402h-91.4c-3.4 0-6.4 2.8-6.4 6.4v142.2c0 3.4 2.8 6.4 6.4 6.4h91.4c3.6 0 6.4-2.8 6.4-6.4v-22.8c0-3.6-2.8-6.4-6.4-6.4H666.00001v-24h62.2c3.6 0 6.4-2.8 6.4-6.4V468c0-3.6-2.8-6.4-6.4-6.4H666.00001v-24h62.2c3.6 0 6.4-2.8 6.4-6.4v-22.8c-0.2-3.4-3-6.4-6.4-6.4zM960.00001 227.4V798c-0.2 89.6-73.6 162.2-163.4 162H226.00001c-89.6-0.2-162.2-73.8-162-163.4V226c0.2-89.6 73.8-162.2 163.4-162H798.00001c89.6 0.2 162.2 73.6 162 163.4z m-123.2 245.2c0-146-146.4-264.8-326.2-264.8-179.8 0-326.2 118.8-326.2 264.8 0 130.8 116 240.4 272.8 261.2 38.2 8.2 33.8 22.2 25.2 73.6-1.4 8.2-6.6 32.2 28.2 17.6 34.8-14.6 187.8-110.6 256.4-189.4 47.2-52 69.8-104.6 69.8-163z" p-id="5435"></path></svg>